<?xml version="1.0" encoding="UTF-8"?>
<svg xmlns="http://www.w3.org/2000/svg" xmlns:xlink="http://www.w3.org/1999/xlink" width="375pt" height="374.999991pt" viewBox="0 0 375 374.999991" version="1.2">
<defs>
<clipPath id="clip1">
  <path d="M 5.25 6 L 366 6 L 366 366.75 L 5.25 366.75 Z M 5.25 6 "/>
</clipPath>
</defs>
<g id="surface1">
<g clip-path="url(#clip1)" clip-rule="nonzero">
<path style=" stroke:none;fill-rule:nonzero;fill:rgb(100%,100%,100%);fill-opacity:1;" d="M 185.625 6 C 182.671875 6 179.722656 6.074219 176.773438 6.21875 C 173.824219 6.363281 170.882812 6.578125 167.945312 6.867188 C 165.007812 7.15625 162.078125 7.519531 159.160156 7.953125 C 156.238281 8.386719 153.332031 8.890625 150.4375 9.464844 C 147.539062 10.042969 144.660156 10.6875 141.796875 11.40625 C 138.933594 12.121094 136.089844 12.910156 133.265625 13.765625 C 130.441406 14.625 127.636719 15.550781 124.859375 16.542969 C 122.078125 17.539062 119.324219 18.601562 116.597656 19.730469 C 113.871094 20.859375 111.171875 22.054688 108.503906 23.316406 C 105.835938 24.578125 103.199219 25.90625 100.597656 27.296875 C 97.992188 28.691406 95.425781 30.144531 92.894531 31.664062 C 90.363281 33.179688 87.867188 34.757812 85.414062 36.398438 C 82.960938 38.039062 80.546875 39.738281 78.175781 41.496094 C 75.804688 43.253906 73.476562 45.070312 71.195312 46.941406 C 68.914062 48.816406 66.679688 50.742188 64.492188 52.726562 C 62.304688 54.707031 60.167969 56.742188 58.082031 58.832031 C 55.992188 60.917969 53.957031 63.054688 51.976562 65.242188 C 49.992188 67.429688 48.066406 69.664062 46.191406 71.945312 C 44.320312 74.226562 42.503906 76.554688 40.746094 78.925781 C 38.988281 81.296875 37.289062 83.710938 35.648438 86.164062 C 34.007812 88.617188 32.429688 91.113281 30.914062 93.644531 C 29.394531 96.175781 27.941406 98.742188 26.546875 101.347656 C 25.15625 103.949219 23.828125 106.585938 22.566406 109.253906 C 21.304688 111.921875 20.109375 114.621094 18.980469 117.347656 C 17.851562 120.074219 16.789062 122.828125 15.792969 125.609375 C 14.800781 128.386719 13.875 131.191406 13.015625 134.015625 C 12.160156 136.839844 11.371094 139.683594 10.65625 142.546875 C 9.9375 145.410156 9.292969 148.289062 8.714844 151.1875 C 8.140625 154.082031 7.636719 156.988281 7.203125 159.910156 C 6.769531 162.828125 6.40625 165.757812 6.117188 168.695312 C 5.828125 171.632812 5.613281 174.574219 5.46875 177.523438 C 5.324219 180.472656 5.25 183.421875 5.25 186.375 C 5.25 189.328125 5.324219 192.277344 5.46875 195.226562 C 5.613281 198.175781 5.828125 201.117188 6.117188 204.054688 C 6.40625 206.992188 6.769531 209.921875 7.203125 212.839844 C 7.636719 215.761719 8.140625 218.667969 8.714844 221.5625 C 9.292969 224.460938 9.9375 227.339844 10.65625 230.203125 C 11.371094 233.066406 12.160156 235.910156 13.015625 238.734375 C 13.875 241.558594 14.800781 244.363281 15.792969 247.140625 C 16.789062 249.921875 17.851562 252.675781 18.980469 255.402344 C 20.109375 258.128906 21.304688 260.828125 22.566406 263.496094 C 23.828125 266.164062 25.15625 268.800781 26.546875 271.402344 C 27.941406 274.007812 29.394531 276.574219 30.914062 279.105469 C 32.429688 281.636719 34.007812 284.132812 35.648438 286.585938 C 37.289062 289.039062 38.988281 291.453125 40.746094 293.824219 C 42.503906 296.195312 44.320312 298.523438 46.191406 300.804688 C 48.066406 303.085938 49.992188 305.320312 51.976562 307.507812 C 53.957031 309.695312 55.992188 311.832031 58.082031 313.917969 C 60.167969 316.007812 62.304688 318.042969 64.492188 320.023438 C 66.679688 322.007812 68.914062 323.933594 71.195312 325.808594 C 73.476562 327.679688 75.804688 329.496094 78.175781 331.253906 C 80.546875 333.011719 82.960938 334.710938 85.414062 336.351562 C 87.867188 337.992188 90.363281 339.570312 92.894531 341.085938 C 95.425781 342.605469 97.992188 344.058594 100.597656 345.453125 C 103.199219 346.84375 105.835938 348.167969 108.503906 349.433594 C 111.171875 350.695312 113.871094 351.890625 116.597656 353.019531 C 119.324219 354.148438 122.078125 355.210938 124.859375 356.207031 C 127.636719 357.199219 130.441406 358.125 133.265625 358.984375 C 136.089844 359.839844 138.933594 360.628906 141.796875 361.34375 C 144.660156 362.0625 147.539062 362.707031 150.4375 363.285156 C 153.332031 363.859375 156.238281 364.363281 159.160156 364.796875 C 162.078125 365.230469 165.007812 365.59375 167.945312 365.882812 C 170.882812 366.171875 173.824219 366.386719 176.773438 366.53125 C 179.722656 366.675781 182.671875 366.75 185.625 366.75 C 188.578125 366.75 191.527344 366.675781 194.476562 366.53125 C 197.425781 366.386719 200.367188 366.171875 203.304688 365.882812 C 206.242188 365.59375 209.171875 365.230469 212.089844 364.796875 C 215.011719 364.363281 217.917969 363.859375 220.8125 363.285156 C 223.710938 362.707031 226.589844 362.0625 229.453125 361.34375 C 232.316406 360.628906 235.160156 359.839844 237.984375 358.984375 C 240.808594 358.125 243.613281 357.199219 246.390625 356.207031 C 249.171875 355.210938 251.925781 354.148438 254.652344 353.019531 C 257.378906 351.890625 260.078125 350.695312 262.746094 349.433594 C 265.414062 348.167969 268.050781 346.84375 270.652344 345.453125 C 273.257812 344.058594 275.824219 342.605469 278.355469 341.085938 C 280.886719 339.570312 283.382812 337.992188 285.835938 336.351562 C 288.289062 334.710938 290.703125 333.011719 293.074219 331.253906 C 295.445312 329.496094 297.773438 327.679688 300.054688 325.808594 C 302.335938 323.933594 304.570312 322.007812 306.757812 320.023438 C 308.945312 318.042969 311.082031 316.007812 313.167969 313.917969 C 315.257812 311.832031 317.292969 309.695312 319.273438 307.507812 C 321.257812 305.320312 323.183594 303.085938 325.058594 300.804688 C 326.929688 298.523438 328.746094 296.195312 330.503906 293.824219 C 332.261719 291.453125 333.960938 289.039062 335.601562 286.585938 C 337.242188 284.132812 338.820312 281.636719 340.335938 279.105469 C 341.855469 276.574219 343.308594 274.007812 344.703125 271.402344 C 346.09375 268.800781 347.417969 266.164062 348.683594 263.496094 C 349.945312 260.828125 351.140625 258.128906 352.269531 255.402344 C 353.398438 252.675781 354.460938 249.921875 355.457031 247.140625 C 356.449219 244.363281 357.375 241.558594 358.234375 238.734375 C 359.089844 235.910156 359.878906 233.066406 360.59375 230.203125 C 361.3125 227.339844 361.957031 224.460938 362.535156 221.5625 C 363.109375 218.667969 363.613281 215.761719 364.046875 212.839844 C 364.480469 209.921875 364.84375 206.992188 365.132812 204.054688 C 365.421875 201.117188 365.636719 198.175781 365.78125 195.226562 C 365.925781 192.277344 366 189.328125 366 186.375 C 366 183.421875 365.925781 180.472656 365.78125 177.523438 C 365.636719 174.574219 365.421875 171.632812 365.132812 168.695312 C 364.84375 165.757812 364.480469 162.828125 364.046875 159.910156 C 363.613281 156.988281 363.109375 154.082031 362.535156 151.1875 C 361.957031 148.289062 361.3125 145.410156 360.59375 142.546875 C 359.878906 139.683594 359.089844 136.839844 358.234375 134.015625 C 357.375 131.191406 356.449219 128.386719 355.457031 125.609375 C 354.460938 122.828125 353.398438 120.074219 352.269531 117.347656 C 351.140625 114.621094 349.945312 111.921875 348.683594 109.253906 C 347.417969 106.585938 346.09375 103.949219 344.703125 101.347656 C 343.308594 98.742188 341.855469 96.175781 340.335938 93.644531 C 338.820312 91.113281 337.242188 88.617188 335.601562 86.164062 C 333.960938 83.710938 332.261719 81.296875 330.503906 78.925781 C 328.746094 76.554688 326.929688 74.226562 325.058594 71.945312 C 323.183594 69.664062 321.257812 67.429688 319.273438 65.242188 C 317.292969 63.054688 315.257812 60.917969 313.167969 58.832031 C 311.082031 56.742188 308.945312 54.707031 306.757812 52.726562 C 304.570312 50.742188 302.335938 48.816406 300.054688 46.941406 C 297.773438 45.070312 295.445312 43.253906 293.074219 41.496094 C 290.703125 39.738281 288.289062 38.039062 285.835938 36.398438 C 283.382812 34.757812 280.886719 33.179688 278.355469 31.664062 C 275.824219 30.144531 273.257812 28.691406 270.652344 27.296875 C 268.050781 25.90625 265.414062 24.578125 262.746094 23.316406 C 260.078125 22.054688 257.378906 20.859375 254.652344 19.730469 C 251.925781 18.601562 249.171875 17.539062 246.390625 16.542969 C 243.613281 15.550781 240.808594 14.625 237.984375 13.765625 C 235.160156 12.910156 232.316406 12.121094 229.453125 11.40625 C 226.589844 10.6875 223.710938 10.042969 220.8125 9.464844 C 217.917969 8.890625 215.011719 8.386719 212.089844 7.953125 C 209.171875 7.519531 206.242188 7.15625 203.304688 6.867188 C 200.367188 6.578125 197.425781 6.363281 194.476562 6.21875 C 191.527344 6.074219 188.578125 6 185.625 6 Z M 172.742188 252.339844 C 172.742188 253.085938 172.667969 253.824219 172.523438 254.550781 C 172.378906 255.28125 172.164062 255.992188 171.878906 256.679688 C 171.59375 257.367188 171.242188 258.019531 170.832031 258.640625 C 170.417969 259.257812 169.945312 259.832031 169.421875 260.359375 C 168.894531 260.882812 168.320312 261.355469 167.703125 261.769531 C 167.082031 262.179688 166.429688 262.53125 165.742188 262.816406 C 165.054688 263.101562 164.34375 263.316406 163.613281 263.460938 C 162.886719 263.605469 162.148438 263.679688 161.402344 263.679688 L 132.542969 263.679688 C 131.796875 263.679688 131.0625 263.605469 130.332031 263.460938 C 129.601562 263.316406 128.890625 263.101562 128.203125 262.816406 C 127.515625 262.53125 126.863281 262.179688 126.246094 261.769531 C 125.625 261.355469 125.050781 260.882812 124.527344 260.359375 C 124 259.832031 123.53125 259.257812 123.117188 258.640625 C 122.703125 258.019531 122.351562 257.367188 122.070312 256.679688 C 121.785156 255.992188 121.570312 255.28125 121.421875 254.550781 C 121.277344 253.824219 121.207031 253.085938 121.207031 252.339844 L 121.207031 120.410156 C 121.207031 119.664062 121.277344 118.925781 121.421875 118.199219 C 121.570312 117.46875 121.785156 116.757812 122.070312 116.070312 C 122.351562 115.382812 122.703125 114.730469 123.117188 114.109375 C 123.53125 113.492188 124 112.917969 124.527344 112.390625 C 125.050781 111.867188 125.625 111.394531 126.246094 110.980469 C 126.863281 110.570312 127.515625 110.21875 128.203125 109.933594 C 128.890625 109.648438 129.601562 109.433594 130.332031 109.289062 C 131.0625 109.144531 131.796875 109.070312 132.542969 109.070312 L 161.402344 109.070312 C 162.148438 109.070312 162.886719 109.144531 163.613281 109.289062 C 164.34375 109.433594 165.054688 109.648438 165.742188 109.933594 C 166.429688 110.21875 167.082031 110.570312 167.703125 110.980469 C 168.320312 111.394531 168.894531 111.867188 169.421875 112.390625 C 169.945312 112.917969 170.417969 113.492188 170.832031 114.109375 C 171.242188 114.730469 171.59375 115.382812 171.878906 116.070312 C 172.164062 116.757812 172.378906 117.46875 172.523438 118.199219 C 172.667969 118.925781 172.742188 119.664062 172.742188 120.410156 Z M 250.042969 252.339844 C 250.042969 253.085938 249.972656 253.824219 249.828125 254.550781 C 249.679688 255.28125 249.464844 255.992188 249.179688 256.679688 C 248.898438 257.367188 248.546875 258.019531 248.132812 258.640625 C 247.71875 259.257812 247.25 259.832031 246.722656 260.359375 C 246.199219 260.882812 245.625 261.355469 245.003906 261.769531 C 244.386719 262.179688 243.734375 262.53125 243.046875 262.816406 C 242.359375 263.101562 241.648438 263.316406 240.917969 263.460938 C 240.1875 263.605469 239.453125 263.679688 238.707031 263.679688 L 209.847656 263.679688 C 209.101562 263.679688 208.363281 263.605469 207.636719 263.460938 C 206.90625 263.316406 206.195312 263.101562 205.507812 262.816406 C 204.820312 262.53125 204.167969 262.179688 203.546875 261.769531 C 202.929688 261.355469 202.355469 260.882812 201.828125 260.359375 C 201.304688 259.832031 200.832031 259.257812 200.417969 258.640625 C 200.007812 258.019531 199.65625 257.367188 199.371094 256.679688 C 199.085938 255.992188 198.871094 255.28125 198.726562 254.550781 C 198.582031 253.824219 198.507812 253.085938 198.507812 252.339844 L 198.507812 120.410156 C 198.507812 119.664062 198.582031 118.925781 198.726562 118.199219 C 198.871094 117.46875 199.085938 116.757812 199.371094 116.070312 C 199.65625 115.382812 200.007812 114.730469 200.417969 114.109375 C 200.832031 113.492188 201.304688 112.917969 201.828125 112.390625 C 202.355469 111.867188 202.929688 111.394531 203.546875 110.980469 C 204.167969 110.570312 204.820312 110.21875 205.507812 109.933594 C 206.195312 109.648438 206.90625 109.433594 207.636719 109.289062 C 208.363281 109.144531 209.101562 109.070312 209.847656 109.070312 L 238.707031 109.070312 C 239.453125 109.070312 240.1875 109.144531 240.917969 109.289062 C 241.648438 109.433594 242.359375 109.648438 243.046875 109.933594 C 243.734375 110.21875 244.386719 110.570312 245.003906 110.980469 C 245.625 111.394531 246.199219 111.867188 246.722656 112.390625 C 247.25 112.917969 247.71875 113.492188 248.132812 114.109375 C 248.546875 114.730469 248.898438 115.382812 249.179688 116.070312 C 249.464844 116.757812 249.679688 117.46875 249.828125 118.199219 C 249.972656 118.925781 250.042969 119.664062 250.042969 120.410156 Z M 250.042969 252.339844 "/>
</g>
</g>
</svg>
