<?xml version="1.0" encoding="UTF-8"?>
<svg xmlns="http://www.w3.org/2000/svg" xmlns:xlink="http://www.w3.org/1999/xlink" width="375pt" height="374.999991pt" viewBox="0 0 375 374.999991" version="1.2">
<defs>
<clipPath id="clip1">
  <path d="M 7.386719 7.386719 L 367.386719 7.386719 L 367.386719 367.386719 L 7.386719 367.386719 Z M 7.386719 7.386719 "/>
</clipPath>
</defs>
<g id="surface1">
<g clip-path="url(#clip1)" clip-rule="nonzero">
<path style=" stroke:none;fill-rule:nonzero;fill:rgb(100%,100%,100%);fill-opacity:1;" d="M 187.386719 7.386719 C 87.976562 7.386719 7.386719 87.976562 7.386719 187.386719 C 7.386719 286.800781 87.976562 367.386719 187.386719 367.386719 C 286.800781 367.386719 367.386719 286.800781 367.386719 187.386719 C 367.386719 87.976562 286.800781 7.386719 187.386719 7.386719 Z M 303.5625 204.769531 C 302.769531 210.574219 301.550781 216.277344 299.9375 221.71875 C 285.550781 271.796875 238.882812 306.808594 186.46875 306.808594 C 181.214844 306.808594 175.90625 306.449219 170.695312 305.738281 C 133.203125 300.625 101.296875 278.664062 83.152344 245.492188 C 81.5 242.46875 81.160156 238.863281 82.226562 235.597656 C 83.28125 232.363281 85.648438 229.675781 88.726562 228.230469 L 98.878906 223.449219 C 104.605469 220.746094 111.894531 223.082031 114.933594 228.574219 C 127.582031 251.414062 149.679688 266.539062 175.5625 270.066406 C 179.1875 270.5625 182.878906 270.8125 186.523438 270.8125 L 186.53125 270.8125 C 222.945312 270.8125 255.371094 246.476562 265.382812 211.632812 C 266.511719 207.816406 267.351562 203.890625 267.894531 199.910156 C 268.4375 195.917969 268.683594 191.9375 268.617188 188.085938 C 268.269531 147.628906 237.796875 113.039062 197.734375 107.574219 C 194.050781 107.070312 190.308594 106.816406 186.609375 106.816406 C 158.980469 106.816406 133.378906 120.753906 118.3125 143.589844 L 121.890625 145.144531 C 125.007812 146.367188 127.253906 149.371094 127.5625 152.910156 C 127.875 156.449219 126.183594 159.804688 123.15625 161.660156 L 89.785156 183.605469 C 84.167969 187.058594 77.339844 183.910156 75.78125 178.230469 L 65.988281 137.21875 C 65.261719 134.59375 65.832031 131.640625 67.601562 129.320312 C 70.078125 126.074219 74.625 124.789062 78.425781 126.289062 L 84.894531 129.09375 C 106 93.003906 144.472656 70.816406 186.609375 70.816406 C 191.929688 70.816406 197.308594 71.183594 202.597656 71.90625 C 260.257812 79.769531 304.113281 129.519531 304.613281 187.625 C 304.707031 193.171875 304.355469 198.957031 303.5625 204.769531 Z M 303.5625 204.769531 "/>
</g>
</g>
</svg>
